# xmcd CD database file
#
# Track frame offsets:
#	150
#	19100
#	36116
#	50618
#	72373
#	91721
#	107022
#	124074
#	145168
#	160975
#	173147
#	192114
#	209481
#	233068
#
# Disc length: 3346 seconds
#
# Revision: 0
# Processed by: cddbd v1.5.1PL0 Copyright (c) Steve Scherf et al.
# Submitted via: CDex 1.51
#
DISCID=bc0d100e
DTITLE=Schoppeschlepper - 25 Jahre Jazz and Jux aus Hessen
DYEAR=2003
DGENRE=Jazz
TTITLE0=Mir keltern selber unsern Äppelwoi
TTITLE1=Schoppeschlepper Waschbrett-Melodie
TTITLE2=Rosswidda
TTITLE3=Uff de Sonneseit' von de Gass
TTITLE4=Hier riecht's doch nach Kartoffelsupp
TTITLE5=Nie mehr A Sechsunseschtzisch
TTITLE6=Ein Bier wär jetzt schoen
TTITLE7=Lisbeth
TTITLE8=Wo bleibt der Kellner
TTITLE9=Grad so wie in New Orleans
TTITLE10=Saarlouis Blues
TTITLE11=Unsern Parre
TTITLE12=Daimler Blues
TTITLE13=Heut war'n die Schoppeschlepper da !
EXTD=YEAR: 2003
EXTT0=
EXTT1=
EXTT2=
EXTT3=
EXTT4=
EXTT5=
EXTT6=
EXTT7=
EXTT8=
EXTT9=
EXTT10=
EXTT11=
EXTT12=
EXTT13=
PLAYORDER=
